<?xml version="1.0" encoding="utf-8"?>
<!-- Generator: Adobe Illustrator 19.2.1, SVG Export Plug-In . SVG Version: 6.00 Build 0)  -->
<svg version="1.1" id="layer" xmlns="http://www.w3.org/2000/svg" xmlns:xlink="http://www.w3.org/1999/xlink" x="0px" y="0px"
	 viewBox="0 0 652 652" style="enable-background:new 0 0 652 652;" xml:space="preserve">
<style type="text/css">
	.st0{fill:#D9323D;}
	.st1{fill:#66AB44;}
	.st2{fill:#FAA61C;}
	.st3{fill:#F47B43;}
	.st4{fill:#0BABC8;}
</style>
<path class="st0" d="M171.6,278.5c4-4,6.8-6.8,11.9-6.8c1.4,0.1,2.8,0.4,4,1c1.2,0.6,2.4,1.5,3.3,2.5c0.9,1.1,1.6,2.3,2,3.6
	c0.4,1.3,0.5,2.7,0.4,4.1v81.5c0,1-0.1,1.9-0.5,2.8c-0.3,0.9-0.9,1.7-1.5,2.4c-0.7,0.7-1.5,1.2-2.3,1.6s-1.8,0.6-2.8,0.6
	c-1,0-1.9-0.2-2.8-0.6c-0.9-0.4-1.7-0.9-2.3-1.6c-0.7-0.7-1.2-1.5-1.5-2.4c-0.3-0.9-0.5-1.8-0.5-2.8v-71.9l-64,64
	c-1.9,2.2-4.5,3.6-7.4,4c-2.9-0.3-5.7-1.5-7.9-3.4l-64-64.5v71.9c0,2-0.8,3.8-2.2,5.2c-1.4,1.4-3.3,2.2-5.2,2.2
	c-2,0-3.8-0.8-5.2-2.2c-1.4-1.4-2.2-3.3-2.2-5.2v-81.5c-0.1-1.4,0.1-2.8,0.6-4.2c0.5-1.3,1.2-2.6,2.1-3.6c0.9-1.1,2.1-1.9,3.4-2.5
	c1.3-0.6,2.7-1,4.1-1c5.7,0,7.4,2.8,11.9,6.8l64,64.5L171.6,278.5z"/>
<path class="st1" d="M349.3,370.8c-3.7-0.1-7.3-1.5-10.2-4c-1.3-1.3-2.4-2.9-3.1-4.7c-0.7-1.8-1-3.6-0.9-5.5v-71.9
	c-0.1-1.9,0.2-3.8,0.9-5.5c0.7-1.8,1.7-3.3,3.1-4.7c1.3-1.3,2.9-2.4,4.7-3.1c1.8-0.7,3.6-1,5.5-0.9h92.8c1.9,0,3.6,0.7,5,2
	c1.4,1.3,2.2,3,2.3,4.8c0,2-0.8,3.8-2.2,5.2c-1.4,1.4-3.3,2.2-5.2,2.2h-85.5c-1-0.1-2,0-2.9,0.4c-0.9,0.3-1.8,0.9-2.5,1.6
	c-0.7,0.7-1.2,1.5-1.6,2.5c-0.3,0.9-0.5,1.9-0.4,2.9v57.2c-0.1,1,0,2,0.4,2.9c0.3,0.9,0.9,1.8,1.6,2.5s1.5,1.2,2.5,1.6
	c0.9,0.3,1.9,0.5,2.9,0.4h87.7c0.9,0,1.9-0.2,2.7-0.6c0.9-0.4,1.6-0.9,2.3-1.6c0.6-0.7,1.1-1.5,1.4-2.4c0.3-0.9,0.4-1.8,0.3-2.8
	v-14.2c0.1-0.9,0-1.9-0.3-2.8c-0.3-0.9-0.8-1.7-1.4-2.4c-0.6-0.7-1.4-1.2-2.3-1.6c-0.9-0.4-1.8-0.6-2.7-0.6H385
	c-0.9,0-1.8-0.2-2.6-0.5s-1.6-0.8-2.2-1.5c-0.6-0.6-1.1-1.4-1.5-2.2s-0.5-1.7-0.5-2.6c-0.1-0.9,0-1.9,0.3-2.8
	c0.3-0.9,0.8-1.7,1.4-2.4c0.6-0.7,1.4-1.2,2.3-1.6c0.9-0.4,1.8-0.6,2.7-0.6h66.2c1.9-0.1,3.8,0.2,5.5,0.9c1.8,0.7,3.3,1.7,4.7,3.1
	c1.4,1.3,2.5,2.9,3.3,4.6c0.8,1.8,1.2,3.6,1.2,5.6v28.9c0,1.9-0.4,3.8-1.2,5.6c-0.8,1.8-1.9,3.3-3.3,4.6c-2.8,2.4-6.4,3.8-10.2,4
	H349.3z"/>
<path class="st2" d="M480.1,363.4v-86c0-2,0.8-3.8,2.2-5.2c1.4-1.4,3.3-2.2,5.2-2.2c2,0,3.8,0.8,5.2,2.2c1.4,1.4,2.2,3.3,2.2,5.2v86
	c0,2-0.8,3.8-2.2,5.2c-1.4,1.4-3.3,2.2-5.2,2.2c-2,0-3.8-0.8-5.2-2.2C480.8,367.3,480.1,365.4,480.1,363.4z"/>
<path class="st3" d="M523.6,370.8c-3.8,0-7.5-1.5-10.2-4.1c-2.7-2.6-4.4-6.2-4.5-10v-71.9c0-1.9,0.4-3.8,1.2-5.6
	c0.8-1.8,1.9-3.3,3.3-4.6c1.3-1.4,2.9-2.4,4.7-3.1c1.8-0.7,3.6-1,5.5-0.9h90.6c0.9-0.1,1.8,0.1,2.6,0.5c0.8,0.4,1.5,1,2,1.7
	c0.7,0.5,1.3,1.2,1.7,2c0.4,0.8,0.6,1.7,0.5,2.6c0.1,1.1-0.1,2.1-0.5,3.1c-0.4,1-1,1.9-1.7,2.6c-0.6,0.6-1.3,1-2.1,1.3
	c-0.8,0.3-1.6,0.4-2.4,0.4h-83.8c-1.9,0.1-3.8,0.9-5.1,2.3c-1.1,1.5-1.7,3.3-1.7,5.1v57.2c-0.1,0.9,0,1.8,0.3,2.7
	c0.3,0.9,0.8,1.7,1.4,2.4c0.6,0.8,1.4,1.4,2.2,1.8c0.9,0.4,1.9,0.6,2.8,0.5h83.8c0.9,0,1.8,0.1,2.6,0.5c0.8,0.4,1.5,1,2,1.7
	c0.7,0.5,1.3,1.2,1.7,2c0.4,0.8,0.6,1.7,0.5,2.6c0.1,1.1-0.1,2.1-0.5,3.1c-0.4,1-1,1.9-1.7,2.6c-0.6,0.6-1.3,1-2.1,1.3
	c-0.8,0.3-1.6,0.4-2.4,0.4H523.6z"/>
<path class="st4" d="M301.8,356.1h-74.1c-4,0-5.7-2.8-5.7-6.8s1.7-6.8,5.7-6.8h74.1c0.9,0,1.7,0.2,2.5,0.5s1.5,0.9,2.1,1.5
	c0.6,0.6,1,1.4,1.3,2.2c0.3,0.8,0.4,1.7,0.3,2.6c0.1,0.9,0,1.7-0.3,2.6c-0.3,0.8-0.7,1.6-1.3,2.2s-1.3,1.1-2.1,1.5
	S302.6,356.1,301.8,356.1z M306.9,298.9h-64c-0.9,0-1.9,0.2-2.7,0.6c-0.9,0.4-1.6,0.9-2.3,1.6c-0.6,0.7-1.1,1.5-1.4,2.4
	c-0.3,0.9-0.4,1.8-0.3,2.8c-0.1,0.9,0,1.9,0.3,2.8c0.3,0.9,0.8,1.7,1.4,2.4c0.6,0.7,1.4,1.2,2.3,1.6c0.9,0.4,1.8,0.6,2.7,0.6h58.9
	c4.5,0,6.2,2.8,6.2,7.4c0,4.5-2.3,7.4-6.2,6.8H222c-1.9,0-3.8,0.4-5.5,1.1c-1.8,0.7-3.3,1.8-4.7,3.2c-1.3,1.4-2.4,3-3,4.8
	c-0.7,1.8-1,3.7-0.9,5.6v14.2c0,3.8,1.5,7.4,4.1,10c2.7,2.7,6.3,4.1,10,4.1H304c17,0,17-13.6,17-14.2v-43c0-3.8-1.5-7.5-4.1-10.2
	C314.3,300.7,310.7,299.1,306.9,298.9z"/>
</svg>
